:SAMPLES-PER-SECOND 30
:FULLY-SPECIFIED
:DEGREES
585
root  2.84275 40.0587 1.95828 -169.813 -5.50285 176.715
RightUpLeg  -17.3301 -3.7622 -4.17429
RightLeg  8.80076 14.1971 -0.0058772
RightFoot  -0.201238 0.00198375 -0.0378539
RightToes  -1.74624e-010 0 -3.6325e-017
Spine  16.7429 -0.823998 2.42348
Spine1  7.71806 -0.279624 -1.12204
HEad  10.1149 0.355771 -2.64361
LeftShoulder1  0.0237963 3.44094 -31.7254
LeftArm  30.9467 -9.32889 -51.6957
LeftForeArm  50.5165 -66.6211 -20.7511
LeftHand  -0.0548205 1.86995 1.51128
RightShoulder  -0.620452 -5.22295 29.3397
RightArm  35.2295 12.4293 56.7994
RightForeArm  48.0489 64.5668 18.819
RightHand  0.0997651 6.18771 0.660879
LeftUpLeg  -13.6481 4.55858 1.79461
LeftLeg  -0.412883 3.23913 -0.106672
LeftFoot  7.66317 -0.130907 0.503832
LeftToes  2.27646e-009 -8.13696e-011 -1.44715e-011
586
root  2.99317 40.0512 1.61999 -171.81 -6.05006 176.289
RightUpLeg  -15.1146 -3.57236 -4.62862
RightLeg  10.2637 13.4871 0.383217
RightFoot  -1.72391 0.0354599 -0.558624
RightToes  -1.74624e-010 0 -3.6325e-017
Spine  14.8705 -0.704551 2.11502
Spine1  6.66725 -0.311721 -0.907236
HEad  6.94208 2.75226 -2.51547
LeftShoulder1  0.00817142 3.48245 -32.0066
LeftArm  31.3416 -8.47118 -51.1738
LeftForeArm  50.832 -66.9515 -21.1107
LeftHand  -0.0473965 1.60805 1.18367
RightShoulder  -0.628753 -5.23529 29.5626
RightArm  35.2817 11.3 55.883
RightForeArm  48.0033 65.1092 19.3803
RightHand  0.0305159 6.134 -0.0350174
LeftUpLeg  -11.3703 4.78116 1.76038
LeftLeg  0.4495 2.52505 -0.0789983
LeftFoot  6.63414 -0.0699688 0.18467
LeftToes  2.27646e-009 -8.13696e-011 -1.44715e-011
587
root  3.1462 40.0314 1.29504 -173.656 -7.02069 176.091
RightUpLeg  -12.8345 -3.67383 -4.7253
RightLeg  11.2719 12.6456 0.495494
RightFoot  -3.0106 0.0502819 -0.971617
RightToes  -1.74624e-010 0 -3.6325e-017
Spine  13.0104 -0.743289 2.32433
Spine1  5.78263 -0.378716 -0.923619
HEad  3.87114 5.23725 -2.5504
LeftShoulder1  0.0104625 3.47644 -32.0116
LeftArm  31.8652 -7.72506 -50.8231
LeftForeArm  50.9808 -67.2561 -21.4705
LeftHand  -0.0503113 1.63314 1.17702
RightShoulder  -0.578798 -5.10505 29.3583
RightArm  34.8817 10.1247 55.378
RightForeArm  48.9203 65.7908 20.0056
RightHand  0.0694546 6.92593 0.301617
LeftUpLeg  -9.21008 4.97509 1.9288
LeftLeg  1.02721 1.33297 0.0284128
LeftFoot  5.57073 -0.0106313 -0.151778
LeftToes  2.27646e-009 -8.13696e-011 -1.44715e-011
588
root  3.28783 40.0094 1.01147 -175.362 -8.04315 176.064
RightUpLeg  -10.527 -4.32314 -4.71533
RightLeg  11.7601 12.2768 0.744963
RightFoot  -4.09008 0.0556981 -1.31161
RightToes  -1.74624e-010 0 -3.6325e-017
Spine  11.7532 -0.63167 2.55288
Spine1  4.32751 -0.312088 -0.7343
HEad  1.63659 8.04838 -2.95473
LeftShoulder1  -0.0169532 3.548 -32.1656
LeftArm  32.5341 -7.07399 -50.8986
LeftForeArm  50.7979 -67.2911 -21.5407
LeftHand  -0.0552053 1.70183 1.34184
RightShoulder  -0.634439 -5.25293 29.5309
RightArm  34.8302 9.00072 54.1655
RightForeArm  49.484 66.696 20.9835
RightHand  0.057067 6.93204 0.183299
LeftUpLeg  -7.4343 5.24598 2.20719
LeftLeg  1.84334 0.145524 0.128374
LeftFoot  4.63128 -0.0151605 -0.0951053
LeftToes  2.27646e-009 -8.13696e-011 -1.44715e-011
589
root  3.43438 39.9967 0.764003 -176.696 -9.31058 176.079
RightUpLeg  -8.49372 -5.29257 -4.6673
RightLeg  11.9145 11.9353 0.921195
RightFoot  -4.93766 0.0482786 -1.46484
RightToes  -1.74624e-010 0 -3.6325e-017
Spine  10.4315 -0.465969 2.94008
Spine1  3.14924 -0.163981 -0.567699
HEad  -0.709972 11.3682 -4.11675
LeftShoulder1  -0.0587675 3.65514 -32.7173
LeftArm  33.5173 -6.76563 -50.7474
LeftForeArm  50.6983 -67.3585 -21.6406
LeftHand  -0.0550399 1.65844 1.47164
RightShoulder  -0.675383 -5.36564 29.5669
RightArm  34.4329 7.90403 53.2004
RightForeArm  51.2607 67.6258 21.9137
RightHand  0.112451 6.83683 0.711297
LeftUpLeg  -6.07462 5.09774 2.38071
LeftLeg  2.39931 -0.964235 0.546025
LeftFoot  3.96551 0.0403588 -0.477848
LeftToes  2.27646e-009 -8.13696e-011 -1.44715e-011
590
root  3.53329 39.9669 0.587546 -177.589 -11.1298 175.789
RightUpLeg  -7.12319 -6.40703 -5.10342
RightLeg  12.5391 11.2805 1.19766
RightFoot  -5.78983 0.0438207 -1.70897
RightToes  -1.74624e-010 0 -3.6325e-017
Spine  9.38589 -0.377043 2.95227
Spine1  1.8622 -0.163072 -0.166389
HEad  -4.81588 15.3525 -5.88034
LeftShoulder1  -0.102162 3.76644 -32.7691
LeftArm  34.5587 -6.50374 -51.2722
LeftForeArm  50.7867 -67.2494 -21.4893
LeftHand  -0.0566286 1.92274 1.57018
RightShoulder  -0.636263 -5.2652 29.3851
RightArm  33.7902 6.67555 52.1853
RightForeArm  52.2803 68.5453 23.049
RightHand  0.132504 6.9298 0.886757
LeftUpLeg  -5.42007 4.95835 2.27918
LeftLeg  3.16882 -2.35847 0.475653
LeftFoot  3.37723 0.0606722 -0.627151
LeftToes  2.27646e-009 -8.13696e-011 -1.44715e-011
591
root  3.59248 39.9576 0.464701 -177.902 -13.1456 175.402
RightUpLeg  -6.18806 -7.41472 -5.63659
RightLeg  12.7503 10.2905 1.24586
RightFoot  -6.42588 0.027735 -1.6584
RightToes  -1.74624e-010 0 -3.6325e-017
Spine  8.46937 -0.204632 3.50738
Spine1  0.285331 0.103531 -0.570708
HEad  -9.64663 19.2294 -6.82249
LeftShoulder1  -0.0750667 3.69797 -32.5525
LeftArm  35.6753 -6.0989 -51.8295
LeftForeArm  50.4769 -67.1019 -21.3442
LeftHand  -0.0672333 1.65059 1.84222
RightShoulder  -0.593024 -5.16005 29.0384
RightArm  32.9167 4.7784 51.1508
RightForeArm  53.8447 69.7332 24.6388
RightHand  0.0546853 6.43656 0.194872
LeftUpLeg  -5.24757 4.65797 1.94025
LeftLeg  3.49574 -2.8142 0.418133
LeftFoot  2.82685 0.130347 -1.18786
LeftToes  2.27646e-009 -8.13696e-011 -1.44715e-011
592
root  3.60735 39.9559 0.42213 -178.077 -14.71 175.078
RightUpLeg  -5.52262 -8.13312 -6.12553
RightLeg  12.796 9.47974 1.24138
RightFoot  -6.83677 0.0118718 -1.47952
RightToes  -1.74624e-010 0 -3.6325e-017
Spine  8.01819 0.297438 5.44692
Spine1  -1.04922 1.02891 -2.53627
HEad  -13.4036 21.5902 -9.86356
LeftShoulder1  -0.092099 3.74005 -32.8843
LeftArm  36.9903 -6.29246 -51.9323
LeftForeArm  51.0163 -67.3448 -21.5815
LeftHand  -0.0565446 2.12551 1.63871
RightShoulder  -0.573803 -5.12325 28.6553
RightArm  31.7292 3.07402 50.5357
RightForeArm  55.2728 70.6298 25.9686
RightHand  0.0565197 6.48138 0.207315
LeftUpLeg  -5.0921 4.75653 1.65795
LeftLeg  3.44842 -0.958176 0.210799
LeftFoot  1.64491 0.264279 -2.43077
LeftToes  2.27646e-009 -8.13696e-011 -1.44715e-011
593
root  3.57798 39.9952 0.448454 -177.795 -15.803 174.688
RightUpLeg  -5.22994 -8.68134 -6.62297
RightLeg  12.2104 8.94927 1.0731
RightFoot  -6.77646 -0.000992725 -1.12989
RightToes  -1.74624e-010 0 -3.6325e-017
Spine  8.03916 1.03252 7.9158
Spine1  -2.80787 2.30004 -5.52311
HEad  -16.0294 23.3575 -13.679
LeftShoulder1  -0.141984 3.86826 -32.8203
LeftArm  38.076 -6.23234 -51.8685
LeftForeArm  52.0028 -67.9421 -22.2305
LeftHand  -0.0562609 1.88494 1.55774
RightShoulder  -0.540799 -5.03354 28.5355
RightArm  30.8799 1.26093 50.2426
RightForeArm  56.7092 71.3854 27.1726
RightHand  0.081913 6.5139 0.452927
LeftUpLeg  -5.00623 5.09598 1.42503
LeftLeg  2.68394 2.12251 -0.26738
LeftFoot  -0.0279933 0.386752 -3.88791
LeftToes  2.27646e-009 -8.13696e-011 -1.44715e-011
594
root  3.52665 40.0538 0.531813 -177.48 -16.6677 174.302
RightUpLeg  -4.93097 -9.24627 -7.16515
RightLeg  11.3111 8.68993 0.929658
RightFoot  -6.5145 -0.0173432 -0.636111
RightToes  -1.74624e-010 0 -3.6325e-017
Spine  8.66277 2.0023 10.9586
Spine1  -4.5913 3.91286 -9.37453
HEad  -18.5645 24.6117 -16.8894
LeftShoulder1  -0.169571 3.93711 -33.0101
LeftArm  38.8551 -6.15641 -51.3997
LeftForeArm  52.3261 -68.3743 -22.7833
LeftHand  -0.0524399 1.76513 1.39994
RightShoulder  -0.505983 -4.93774 28.4189
RightArm  30.0356 -0.419495 50.282
RightForeArm  57.935 71.981 28.1989
RightHand  0.119439 6.60736 0.80629
LeftUpLeg  -5.09678 5.44127 1.17751
LeftLeg  2.52751 5.20307 -0.744848
LeftFoot  -1.54975 0.325097 -3.67163
LeftToes  2.27646e-009 -8.13696e-011 -1.44715e-011
595
root  3.47336 40.0986 0.663131 -177.277 -18.4663 173.927
RightUpLeg  -4.37008 -10.2 -7.89905
RightLeg  10.5008 7.85636 0.993575
RightFoot  -6.30132 -0.034566 -0.186327
RightToes  -1.74624e-010 0 -3.6325e-017
Spine  9.52373 2.63444 13.5207
Spine1  -5.94685 5.10445 -12.9045
HEad  -20.6078 25.6384 -19.5452
LeftShoulder1  -0.172332 3.94612 -32.8396
LeftArm  38.9339 -5.74834 -50.9611
LeftForeArm  51.8516 -68.6181 -23.2072
LeftHand  -0.055083 2.03065 1.54727
RightShoulder  -0.585902 -5.13254 29.2041
RightArm  29.972 -0.931431 49.7823
RightForeArm  57.9847 72.2573 28.8033
RightHand  0.124016 6.91037 0.815636
LeftUpLeg  -5.80643 5.70998 0.891716
LeftLeg  3.90625 7.54621 -0.794206
LeftFoot  -2.63386 0.231671 -2.84386
LeftToes  2.27646e-009 -8.13696e-011 -1.44715e-011
596
root  3.44675 40.1209 0.792389 -177.038 -20.6131 173.694
RightUpLeg  -3.92623 -10.6409 -8.31129
RightLeg  9.91407 6.2577 0.815696
RightFoot  -6.17983 -0.0571367 0.337748
RightToes  -1.74624e-010 0 -3.6325e-017
Spine  10.173 3.30043 14.706
Spine1  -6.96896 6.00972 -14.6967
HEad  -21.7686 26.4685 -20.9513
LeftShoulder1  -0.238992 4.11358 -33.0422
LeftArm  38.6549 -5.04121 -49.9874
LeftForeArm  51.4326 -68.968 -23.7938
LeftHand  -0.0676947 1.79873 1.91439
RightShoulder  -0.566463 -5.0758 29.22
RightArm  30.2168 -1.0259 50.3608
RightForeArm  57.4059 71.738 27.7815
RightHand  0.143391 6.6572 1.02645
LeftUpLeg  -6.74326 6.81319 0.873737
LeftLeg  5.94572 9.36933 -0.616337
LeftFoot  -3.21191 0.200118 -2.54414
LeftToes  2.27646e-009 -8.13696e-011 -1.44715e-011
597
root  3.41898 40.1177 0.932085 -176.767 -23.8554 173.556
RightUpLeg  -3.45318 -11.1314 -8.66908
RightLeg  9.71499 3.6329 0.705338
RightFoot  -6.23868 -0.0751599 0.736495
RightToes  -1.74624e-010 0 -3.6325e-017
Spine  10.4543 3.64258 14.9393
Spine1  -7.62884 6.37164 -15.2397
HEad  -22.4348 26.4647 -21.7089
LeftShoulder1  -0.30123 4.26512 -33.4378
LeftArm  38.1249 -4.23529 -48.7134
LeftForeArm  50.8259 -69.1109 -24.1091
LeftHand  -0.0695085 1.717 1.9214
RightShoulder  -0.494062 -4.88817 28.8119
RightArm  30.7279 -0.948802 51.2952
RightForeArm  55.8095 71.0032 26.5743
RightHand  0.0715218 6.36716 0.362915
LeftUpLeg  -8.08007 9.4102 0.825703
LeftLeg  8.71324 9.7411 -0.126807
LeftFoot  -3.72942 0.157222 -2.02682
LeftToes  2.27646e-009 -8.13696e-011 -1.44715e-011
